<svg xmlns="http://www.w3.org/2000/svg" width="219.244" height="219.24" viewBox="0 0 219.244 219.24">
  <path id="Icon_awesome-paint-brush" data-name="Icon awesome-paint-brush" d="M71.522,132.46c-17.179,1.1-32.77,7.648-41.617,30.959a6.535,6.535,0,0,1-6.247,4.273C18.9,167.693,4.191,155.845,0,152.984c0,35.263,16.246,66.256,54.814,66.256,32.483,0,54.81-18.742,54.81-51.466a37.1,37.1,0,0,0-.415-3.909l-37.686-31.4ZM196.074,0a26.149,26.149,0,0,0-17.218,7.044C91.326,85.234,82.219,87.071,82.219,110.087a39.643,39.643,0,0,0,3.738,16.571l27.328,22.772a39.4,39.4,0,0,0,9.587,1.3c26.6,0,42.011-19.47,90.419-109.817,3.16-6.145,5.952-12.782,5.952-19.693C219.244,8.838,208.11,0,196.074,0Z" transform="translate(0.001)" fill="#fff"/>
</svg>
